<?xml version="1.0" encoding="UTF-8" standalone="no"?>
<!-- Created with Inkscape (http://www.inkscape.org/) -->

<svg
   width="411.70926mm"
   height="418.5083mm"
   viewBox="0 0 411.70926 418.5083"
   version="1.1"
   id="svg5"
   xml:space="preserve"
   inkscape:version="1.2.2 (b0a8486, 2022-12-01)"
   sodipodi:docname="logo.svg"
   xmlns:inkscape="http://www.inkscape.org/namespaces/inkscape"
   xmlns:sodipodi="http://sodipodi.sourceforge.net/DTD/sodipodi-0.dtd"
   xmlns="http://www.w3.org/2000/svg"
   xmlns:svg="http://www.w3.org/2000/svg"><sodipodi:namedview
     id="namedview7"
     pagecolor="#ffffff"
     bordercolor="#000000"
     borderopacity="0.25"
     inkscape:showpageshadow="2"
     inkscape:pageopacity="0.0"
     inkscape:pagecheckerboard="0"
     inkscape:deskcolor="#d1d1d1"
     inkscape:document-units="mm"
     showgrid="false"
     inkscape:zoom="0.097548401"
     inkscape:cx="-1050.7604"
     inkscape:cy="3418.8157"
     inkscape:window-width="1850"
     inkscape:window-height="1016"
     inkscape:window-x="70"
     inkscape:window-y="927"
     inkscape:window-maximized="1"
     inkscape:current-layer="layer1" /><defs
     id="defs2" /><g
     inkscape:label="Layer 1"
     inkscape:groupmode="layer"
     id="layer1"
     transform="translate(675.26436,-672.38169)"><path
       id="path343-2-0-6-9-2-6-6-4"
       style="fill:none;fill-opacity:1;stroke:#ffffff;stroke-width:30;stroke-dasharray:none;stroke-opacity:1"
       d="m -494.28049,689.32923 c -11.2889,2.46944 -22.1369,6.17362 -32.5438,11.1125 0.1764,8.99583 0.882,17.99169 2.1167,26.9875 -8.4667,4.76251 -16.2278,10.40696 -23.2834,16.93334 -6.8791,-4.7625 -14.1111,-8.90764 -21.6958,-12.43542 -8.4666,8.64305 -15.7868,18.16807 -21.9604,28.575 4.5861,7.40833 9.525,14.55209 14.8167,21.43125 v 65.08748 l 3.9217,0.3613 h -3.9217 v 8.37 10.3187 c 0,73.0249 215.1062,73.0249 215.1062,0 v -9.7312 c 0.088,-0.076 0.1764,-0.1496 0.2646,-0.2263 v -8.7312 h -3.9217 l 3.9217,-0.3613 V 781.9334 c 5.2917,-6.87916 10.2306,-14.02292 14.8167,-21.43125 -6.1736,-10.40693 -13.4938,-19.93195 -21.9605,-28.575 -7.5847,3.52778 -14.8166,7.67292 -21.6958,12.43542 -7.0555,-6.52638 -14.8167,-12.17083 -23.2833,-16.93334 1.2347,-8.99581 1.9402,-17.99167 2.1166,-26.9875 -10.4069,-4.93888 -21.2548,-8.64306 -32.5437,-11.1125 -4.5861,7.58472 -8.6431,15.43404 -12.1708,23.54792 -8.6431,-1.23472 -17.2862,-1.23472 -25.9292,0 -3.5278,-8.11388 -7.5847,-15.9632 -12.1708,-23.54792 z"
       inkscape:export-filename="path343-2-0-6-9-2-6-6-4.png"
       inkscape:export-xdpi="96"
       inkscape:export-ydpi="96" /><path
       id="path343-2-0-6-9-2-6-9"
       style="fill:#000000;fill-opacity:1;stroke:none;stroke-width:30;stroke-dasharray:none;stroke-opacity:1"
       d="m -494.28049,689.32923 c -11.2889,2.46944 -22.1369,6.17362 -32.5438,11.1125 0.1764,8.99583 0.882,17.99169 2.1167,26.9875 -8.4667,4.76251 -16.2278,10.40696 -23.2834,16.93334 -6.8791,-4.7625 -14.1111,-8.90764 -21.6958,-12.43542 -8.4666,8.64305 -15.7868,18.16807 -21.9604,28.575 4.5861,7.40833 9.525,14.55209 14.8167,21.43125 v 65.08748 l 3.9217,0.3613 h -3.9217 v 8.37 10.3187 c 0,73.0249 215.1062,73.0249 215.1062,0 v -9.7312 c 0.088,-0.076 0.1764,-0.1496 0.2646,-0.2263 v -8.7312 h -3.9217 l 3.9217,-0.3613 V 781.9334 c 5.2917,-6.87916 10.2306,-14.02292 14.8167,-21.43125 -6.1736,-10.40693 -13.4938,-19.93195 -21.9605,-28.575 -7.5847,3.52778 -14.8166,7.67292 -21.6958,12.43542 -7.0555,-6.52638 -14.8167,-12.17083 -23.2833,-16.93334 1.2347,-8.99581 1.9402,-17.99167 2.1166,-26.9875 -10.4069,-4.93888 -21.2548,-8.64306 -32.5437,-11.1125 -4.5861,7.58472 -8.6431,15.43404 -12.1708,23.54792 -8.6431,-1.23472 -17.2862,-1.23472 -25.9292,0 -3.5278,-8.11388 -7.5847,-15.9632 -12.1708,-23.54792 z" /><path
       id="path343-2-0-6-9-5"
       style="fill:#ffffff;stroke-width:0.264583"
       d="m -577.09509,852.47408 v 8.37 l 35.7187,3.175 1.3229,18.2563 c 0.3528,1.7638 1.5875,2.9104 3.7042,3.4395 l 42.8625,2.9105 c 2.1167,0 3.5278,-0.9702 4.2333,-2.9105 l 2.6459,-17.1979 h 34.3958 l 2.6458,17.1979 c 0.7056,1.9403 2.1167,2.9105 4.2334,2.9105 l 42.8625,-2.9105 c 2.1166,-0.5291 3.3514,-1.6757 3.7041,-3.4395 l 1.323,-18.2563 35.4541,-3.175 v 0.5876 c 0.088,-0.077 0.1765,-0.1497 0.2646,-0.2264 v -8.7312 h -3.9217 l -36.295,3.3429 c -2.1166,0.1764 -3.4395,1.4112 -3.9687,3.7042 l -1.0583,17.7271 -34.925,2.6458 -2.1167,-16.1396 c -0.3528,-1.9402 -1.6757,-3.2632 -3.9688,-3.9687 h -42.8625 c -2.293,0.7055 -3.6159,2.0285 -3.9687,3.9687 l -2.1167,16.1396 -34.925,-2.6458 -1.0583,-17.7271 c -0.5292,-2.293 -1.8521,-3.5278 -3.9688,-3.7042 l -36.2949,-3.3429 z" /><circle
       cx="-412.78885"
       cy="808.12714"
       r="23.8125"
       id="circle349-3-6-0"
       style="fill:#ffffff;stroke-width:0.264583" /><circle
       cx="-525.50134"
       cy="808.12714"
       r="23.8125"
       id="circle351-7-8-48"
       style="fill:#ffffff;stroke-width:0.264583" /><g
       fill="#414042"
       id="g359-5-8-7"
       transform="matrix(0.26458333,0,0,0.26458333,-604.61179,675.30632)"
       style="fill:#000000"><circle
         cx="307"
         cy="532"
         r="60"
         id="circle355-9-4-1"
         style="fill:#000000" /><circle
         cx="717"
         cy="532"
         r="60"
         id="circle357-2-3-7"
         style="fill:#000000" /></g><g
       id="g14132"
       transform="translate(602.53129,-69.371222)"><path
         style="fill:#ffffff;stroke:none;stroke-width:14.1;stroke-linecap:round;stroke-linejoin:round;stroke-miterlimit:0;stroke-dasharray:none;stroke-opacity:1;paint-order:fill markers stroke"
         d="m -1081.4953,1129.5604 c -8.2933,-0.9908 -20.3773,-4.117 -42.6329,-11.0291 -40.3395,-12.5287 -71.4712,-19.0006 -102.0261,-21.2097 -8.203,-0.5931 -16.7323,-1.2776 -18.9544,-1.5212 l -4.0398,-0.4429 0.2178,-79.5061 c 0.1199,-43.72839 0.5014,-83.09582 0.8481,-87.48319 l 0.6304,-7.97709 h 19.0435 c 44.938,0 72.4314,5.1569 101.2407,18.9895 17.6749,8.48656 38.3567,21.22048 47.4402,29.20931 l 2.7773,2.4427 v 79.58977 c 0,43.7743 -0.3408,79.5246 -0.7575,79.4449 -0.4166,-0.08 -2.1208,-0.3078 -3.7873,-0.5069 z"
         id="path13969" /><path
         style="fill:#ffffff;stroke:none;stroke-width:14.1;stroke-linecap:round;stroke-linejoin:round;stroke-miterlimit:0;stroke-dasharray:none;stroke-opacity:1;paint-order:fill markers stroke"
         d="m -1065.6233,1105.003 c -0.3726,-16.831 -0.6677,-54.382 -0.6558,-83.4468 l 0.022,-52.84496 9.7448,-7.60912 c 27.1837,-21.22608 60.15409,-35.83718 95.20679,-42.19155 11.0887,-2.01018 63.5482,-3.22063 66.0697,-1.52446 1.3482,0.90686 1.5208,12.11488 1.4081,91.40689 -0.071,49.7053 -0.3844,90.6268 -0.6971,90.9366 -0.3129,0.3098 -6.017,0.9802 -12.6758,1.4898 -37.7914,2.8921 -70.7107,9.8357 -116.58959,24.5918 -22.5561,7.2548 -32.5198,9.7936 -38.4357,9.7936 h -2.7197 z"
         id="path13971" /><g
         id="rect13965"
         style="stroke:#fffffc;stroke-width:20;stroke-linecap:round;stroke-dasharray:none;stroke-opacity:1;paint-order:fill markers stroke"
         transform="translate(159.52859,108.10658)"><path
           style="color:#000000;fill:#ffffff;stroke:#fffffc;stroke-width:20;stroke-linecap:round;stroke-linejoin:round;stroke-miterlimit:0;stroke-dasharray:none;stroke-opacity:1;paint-order:fill markers stroke"
           d="m -1400.6187,796.3813 c -6.497,-0.004 -11.7369,0.12769 -14.5315,0.43608 l -7.2554,0.80143 -0.3125,103.98842 -0.315,103.98867 16.2161,0.01 c 18.6332,0.01 34.0397,1.3466 54.2215,4.7031 18.8959,3.1427 32.2076,6.6417 59.6166,15.6687 20.4717,6.7422 33.1754,10.0077 45.2556,11.6323 2.1828,0.2933 12.0055,0.3397 21.8281,0.1029 20.3077,-0.4897 28.8995,-2.2963 58.5365,-12.3126 39.3775,-13.3083 67.5593,-18.6126 102.7535,-19.3377 12.675,-0.2611 23.3101,-0.7067 23.6316,-0.9908 0.3215,-0.2841 0.7574,-46.83704 0.9689,-103.45214 0.2865,-76.77142 -0.01,-103.15372 -1.142,-103.78977 -2.7044,-1.51216 -48.2037,-1.7887 -63.4613,-0.38572 -42.7794,3.93323 -76.0437,15.79605 -110.0424,39.2414 -5.8208,4.01399 -11.6799,8.37959 -13.0199,9.70131 -2.4322,2.39921 -2.4521,2.39117 -11.9062,-4.66228 -29.8584,-22.27632 -65.192,-37.19897 -100.751,-42.54975 -10.0002,-1.50473 -40.8001,-2.77317 -60.2908,-2.79234 z m 328.0316,2.32887 c 6.5095,0.0265 12.9263,0.26465 19.1332,0.72835 l 10.1209,0.75574 v 101.42437 101.42017 l -16.8673,0.01 c -35.9624,0.013 -70.3706,6.4617 -112.3807,21.059 -9.3138,3.2363 -21.6969,7.0201 -27.5177,8.4086 v 0 c -11.6707,2.784 -37.4038,4.044 -48.9479,2.395 -11.2928,-1.6131 -26.2602,-5.6445 -43.9043,-11.8264 -38.4233,-13.4621 -73.9072,-19.9648 -109.8047,-20.123 l -17.446,-0.078 0.248,-101.42471 0.2505,-101.42897 12.5677,-0.85617 c 16.7624,-1.14207 59.8095,1.24061 74.3082,4.11204 33.6603,6.66628 61.4111,18.87496 90.0591,39.62269 6.3644,4.60931 11.9065,8.38163 12.3145,8.38163 0.408,0 5.022,-3.20024 10.2552,-7.10992 20.072,-14.99546 44.6809,-27.7221 67.138,-34.72518 22.3031,-6.95505 52.2654,-10.85241 80.4732,-10.74248 z m -0.318,7.30852 c -15.887,-0.0813 -38.3693,1.04187 -49.8031,2.74215 -32.5156,4.83508 -61.4127,17.67063 -93.6481,41.59761 l -10.9657,8.13964 0.3255,74.42554 c 0.18,40.93425 0.5447,79.29127 0.8087,85.23827 l 0.4805,10.8126 h 5.9273 c 9.2121,0 23.4978,-3.275 40.8477,-9.3651 41.2707,-14.4867 89.6816,-23.9512 125.2223,-24.4814 l 3.514,-0.052 -0.2065,-93.81074 -0.2065,-93.81218 -9.2604,-0.927 c -3.1764,-0.31811 -7.7398,-0.47969 -13.0354,-0.50686 z m -308.4334,0.41576 c -15.2797,-0.0398 -28.4901,0.31723 -29.3574,0.79228 -1.1982,0.65642 -1.5973,23.31386 -1.6588,94.35559 l -0.08,93.49108 4.9635,0.013 c 9.5068,0.022 42.1016,3.4921 55.8054,5.9383 21.0616,3.7594 38.7423,8.4519 63.5491,16.8627 12.4266,4.2132 26.299,8.3893 30.8302,9.2807 4.5311,0.8914 11.514,1.5301 15.5158,1.4201 l 7.2761,-0.201 0.3385,-84.40204 0.341,-84.40539 -4.9868,-4.07783 c -22.8237,-18.66033 -51.6858,-34.31384 -76.3907,-41.43326 -20.2744,-5.84267 -35.1005,-7.55461 -66.1458,-7.63502 z m 302.0462,2.7444 c 12.9196,0.0464 24.1439,0.55383 24.8822,1.48865 0.6409,0.81176 0.9785,41.59911 0.7571,91.76648 l -0.4005,90.30382 h -6.9272 c -3.8102,0 -13.752,0.7503 -22.0917,1.6689 -30.961,3.4107 -60.4353,10.1186 -91.8963,20.913 -10.1838,3.4941 -21.8137,7.1904 -25.8433,8.2122 -9.1193,2.3125 -21.4484,3.6352 -22.7687,2.4429 -0.5456,-0.4929 -0.9922,-37.7825 -0.9922,-82.86561 v -81.9715 l 6.2839,-5.37239 c 27.8855,-23.84754 66.8924,-40.85154 103.9446,-45.3124 7.5182,-0.90526 22.1325,-1.32044 35.0521,-1.27405 z m -293.4524,0.24212 c 28.8822,0.40604 49.5663,4.014 70.6598,12.06217 18.2569,6.96584 43.7716,21.90152 59.3219,34.72518 l 6.2839,5.1806 v 82.62681 82.62117 l -4.9609,-0.1276 c -10.0882,-0.2603 -23.6758,-3.5628 -43.987,-10.6894 -37.596,-13.1914 -74.8787,-20.9214 -109.3629,-22.6755 l -14.7743,-0.7511 0.54,-91.30163 0.54,-91.30067 22.8333,-0.35169 c 4.4858,-0.0689 8.7802,-0.0764 12.9062,-0.0177 z"
           id="path14055" /><path
           style="color:#000000;fill:#000000;stroke:#fffffc;stroke-width:20;stroke-linecap:round;stroke-linejoin:round;stroke-miterlimit:0;stroke-dasharray:none;stroke-opacity:1;paint-order:fill markers stroke"
           d="m -1400.6152,792.08984 c -6.5564,-0.004 -11.7625,0.10498 -15.0059,0.46289 l -7.2559,0.80079 c -2.1687,0.24033 -3.8118,2.06996 -3.8183,4.25195 l -0.3125,103.98828 -0.3164,103.98825 c -0.01,2.3744 1.9146,4.3036 4.289,4.3047 l 16.2149,0.01 c 18.4293,0.01 33.5045,1.3158 53.5196,4.6445 18.7091,3.1117 31.6487,6.5108 58.9785,15.5117 20.5816,6.7784 33.5863,10.1358 46.0254,11.8086 1.9036,0.2558 4.5921,0.2702 8.5996,0.2891 4.0075,0.019 8.9518,-0.029 13.9043,-0.1484 20.5327,-0.4952 30.0796,-2.4904 59.8066,-12.5372 39.1168,-13.2202 66.6563,-18.396 101.4668,-19.1132 6.3631,-0.1311 12.2127,-0.3069 16.541,-0.4883 2.1642,-0.091 3.9427,-0.1827 5.2539,-0.2735 0.6556,-0.045 1.1858,-0.089 1.6524,-0.1425 0.2333,-0.027 0.4412,-0.053 0.7265,-0.1075 0.1427,-0.027 0.2993,-0.056 0.5684,-0.1386 0.2691,-0.083 0.5852,0.02 1.6426,-0.9141 0,0 0.8566,-1.0158 1,-1.3027 0.1434,-0.287 0.2054,-0.4685 0.2519,-0.6133 0.093,-0.2895 0.1164,-0.4324 0.1387,-0.5508 0.045,-0.2368 0.054,-0.3492 0.066,-0.4629 0.024,-0.2273 0.034,-0.4098 0.047,-0.6308 0.025,-0.4422 0.046,-1.0042 0.068,-1.7286 0.044,-1.4487 0.09,-3.52116 0.1347,-6.17573 0.09,-5.30915 0.1797,-12.93112 0.2676,-22.3125 0.1757,-18.76278 0.3376,-44.56086 0.4434,-72.875 0.1432,-38.39303 0.1413,-64.18668 -0.039,-80.50782 -0.09,-8.16057 -0.2223,-13.94421 -0.4102,-17.8164 -0.094,-1.9361 -0.1984,-3.37786 -0.3398,-4.51563 -0.071,-0.56888 -0.1402,-1.04726 -0.2891,-1.61914 -0.074,-0.28594 -0.1556,-0.59381 -0.375,-1.05469 -0.2193,-0.46087 -0.4699,-1.24067 -1.8769,-2.03125 0,-0.001 -0.01,-0.003 -0.01,-0.004 -1.2751,-0.71298 -1.6876,-0.63673 -2.3477,-0.75196 -0.6601,-0.11522 -1.3749,-0.20201 -2.207,-0.2832 -1.6643,-0.16237 -3.7732,-0.29205 -6.2598,-0.40234 -4.9731,-0.2206 -11.428,-0.3529 -18.2773,-0.39453 -13.6986,-0.0833 -28.8139,0.17851 -36.8555,0.91796 -43.3607,3.98668 -77.5674,16.17859 -112.0859,39.98243 -2.955,2.03773 -5.908,4.15518 -8.3184,5.95117 -2.2251,1.65795 -3.6878,2.78867 -4.873,3.90234 -0.6596,-0.3963 -2.5386,-1.59227 -6.7344,-4.72265 -30.4226,-22.69725 -66.3716,-37.89032 -102.6778,-43.35352 -10.9311,-1.64481 -41.2514,-2.82049 -60.9238,-2.83984 v -0.002 z m 321.3066,21.37891 c 6.4081,0.023 12.3989,0.1616 16.7891,0.4043 1.7393,0.0961 2.9676,0.21975 4.0918,0.33984 0.051,1.15276 0.1028,2.3675 0.1484,4.1875 0.1172,4.6773 0.2129,11.40683 0.2813,19.67773 0.1366,16.54182 0.1653,39.26899 0.055,64.3379 l -0.3808,86.03125 h -2.6563 c -4.3734,0 -14.1066,0.76392 -22.5625,1.69531 -31.2749,3.44529 -61.0954,10.23482 -92.8183,21.11912 -10.1139,3.4701 -21.9594,7.212 -25.5059,8.1113 -4.302,1.091 -9.5374,1.98 -13.7109,2.4278 -1.6158,0.1733 -2.8389,0.2197 -3.9864,0.2558 -0.038,-0.931 -0.077,-1.7007 -0.1132,-3.0175 -0.1175,-4.2276 -0.2228,-10.3294 -0.3125,-17.8262 -0.1796,-14.9937 -0.293,-35.57616 -0.293,-58.10353 v -79.99414 l 4.7832,-4.08789 v -0.002 c 27.1491,-23.21778 65.5456,-39.96359 101.668,-44.3125 7.0176,-0.84498 21.7074,-1.29016 34.5234,-1.24414 z m -293.498,0.24219 c 28.5538,0.40142 48.5698,3.91386 69.1895,11.78125 17.5923,6.71228 43.0884,21.62701 58.123,34.02539 v 0.002 l 4.7227,3.89258 v 80.60351 78.21883 l -0.5606,-0.014 c -9.252,-0.2387 -22.5379,-3.3834 -42.6758,-10.4492 -37.938,-13.31147 -75.6002,-21.13356 -110.5664,-22.91218 l -10.6777,-0.54296 0.5156,-87.19922 0.5156,-87.10157 18.6329,-0.2871 c 4.4485,-0.0683 8.7008,-0.0756 12.7793,-0.0176 z"
           id="path14057"
           sodipodi:nodetypes="csccccccsssssssccssccsscscscssssccsccsssscsscssccccscssccscsssccsscccsccssccccccssccccss" /></g><g
         id="rect13965-6"
         style="stroke:none;stroke-width:14.1;stroke-linecap:round;stroke-dasharray:none;stroke-opacity:1;paint-order:fill markers stroke"
         transform="translate(159.52859,108.10658)"><path
           style="color:#000000;fill:#ffffff;stroke:none;stroke-width:14.1;stroke-linecap:round;stroke-linejoin:round;stroke-miterlimit:0;stroke-dasharray:none;stroke-opacity:1;paint-order:fill markers stroke"
           d="m -1400.6187,796.3813 c -6.497,-0.004 -11.7369,0.12769 -14.5315,0.43608 l -7.2554,0.80143 -0.3125,103.98842 -0.315,103.98867 16.2161,0.01 c 18.6332,0.01 34.0397,1.3466 54.2215,4.7031 18.8959,3.1427 32.2076,6.6417 59.6166,15.6687 20.4717,6.7422 33.1754,10.0077 45.2556,11.6323 2.1828,0.2933 12.0055,0.3397 21.8281,0.1029 20.3077,-0.4897 28.8995,-2.2963 58.5365,-12.3126 39.3775,-13.3083 67.5593,-18.6126 102.7535,-19.3377 12.675,-0.2611 23.3101,-0.7067 23.6316,-0.9908 0.3215,-0.2841 0.7574,-46.83704 0.9689,-103.45214 0.2865,-76.77142 -0.01,-103.15372 -1.142,-103.78977 -2.7044,-1.51216 -48.2037,-1.7887 -63.4613,-0.38572 -42.7794,3.93323 -76.0437,15.79605 -110.0424,39.2414 -5.8208,4.01399 -11.6799,8.37959 -13.0199,9.70131 -2.4322,2.39921 -2.4521,2.39117 -11.9062,-4.66228 -29.8584,-22.27632 -65.192,-37.19897 -100.751,-42.54975 -10.0002,-1.50473 -40.8001,-2.77317 -60.2908,-2.79234 z m 328.0316,2.32887 c 6.5095,0.0265 12.9263,0.26465 19.1332,0.72835 l 10.1209,0.75574 v 101.42437 101.42017 l -16.8673,0.01 c -35.9624,0.013 -70.3706,6.4617 -112.3807,21.059 -9.3138,3.2363 -21.6969,7.0201 -27.5177,8.4086 v 0 c -11.6707,2.784 -37.4038,4.044 -48.9479,2.395 -11.2928,-1.6131 -26.2602,-5.6445 -43.9043,-11.8264 -38.4233,-13.4621 -73.9072,-19.9648 -109.8047,-20.123 l -17.446,-0.078 0.248,-101.42471 0.2505,-101.42897 12.5677,-0.85617 c 16.7624,-1.14207 59.8095,1.24061 74.3082,4.11204 33.6603,6.66628 61.4111,18.87496 90.0591,39.62269 6.3644,4.60931 11.9065,8.38163 12.3145,8.38163 0.408,0 5.022,-3.20024 10.2552,-7.10992 20.072,-14.99546 44.6809,-27.7221 67.138,-34.72518 22.3031,-6.95505 52.2654,-10.85241 80.4732,-10.74248 z m -0.318,7.30852 c -15.887,-0.0813 -38.3693,1.04187 -49.8031,2.74215 -32.5156,4.83508 -61.4127,17.67063 -93.6481,41.59761 l -10.9657,8.13964 0.3255,74.42554 c 0.18,40.93425 0.5447,79.29127 0.8087,85.23827 l 0.4805,10.8126 h 5.9273 c 9.2121,0 23.4978,-3.275 40.8477,-9.3651 41.2707,-14.4867 89.6816,-23.9512 125.2223,-24.4814 l 3.514,-0.052 -0.2065,-93.81074 -0.2065,-93.81218 -9.2604,-0.927 c -3.1764,-0.31811 -7.7398,-0.47969 -13.0354,-0.50686 z m -308.4334,0.41576 c -15.2797,-0.0398 -28.4901,0.31723 -29.3574,0.79228 -1.1982,0.65642 -1.5973,23.31386 -1.6588,94.35559 l -0.08,93.49108 4.9635,0.013 c 9.5068,0.022 42.1016,3.4921 55.8054,5.9383 21.0616,3.7594 38.7423,8.4519 63.5491,16.8627 12.4266,4.2132 26.299,8.3893 30.8302,9.2807 4.5311,0.8914 11.514,1.5301 15.5158,1.4201 l 7.2761,-0.201 0.3385,-84.40204 0.341,-84.40539 -4.9868,-4.07783 c -22.8237,-18.66033 -51.6858,-34.31384 -76.3907,-41.43326 -20.2744,-5.84267 -35.1005,-7.55461 -66.1458,-7.63502 z m 302.0462,2.7444 c 12.9196,0.0464 24.1439,0.55383 24.8822,1.48865 0.6409,0.81176 0.9785,41.59911 0.7571,91.76648 l -0.4005,90.30382 h -6.9272 c -3.8102,0 -13.752,0.7503 -22.0917,1.6689 -30.961,3.4107 -60.4353,10.1186 -91.8963,20.913 -10.1838,3.4941 -21.8137,7.1904 -25.8433,8.2122 -9.1193,2.3125 -21.4484,3.6352 -22.7687,2.4429 -0.5456,-0.4929 -0.9922,-37.7825 -0.9922,-82.86561 v -81.9715 l 6.2839,-5.37239 c 27.8855,-23.84754 66.8924,-40.85154 103.9446,-45.3124 7.5182,-0.90526 22.1325,-1.32044 35.0521,-1.27405 z m -293.4524,0.24212 c 28.8822,0.40604 49.5663,4.014 70.6598,12.06217 18.2569,6.96584 43.7716,21.90152 59.3219,34.72518 l 6.2839,5.1806 v 82.62681 82.62117 l -4.9609,-0.1276 c -10.0882,-0.2603 -23.6758,-3.5628 -43.987,-10.6894 -37.596,-13.1914 -74.8787,-20.9214 -109.3629,-22.6755 l -14.7743,-0.7511 0.54,-91.30163 0.54,-91.30067 22.8333,-0.35169 c 4.4858,-0.0689 8.7802,-0.0764 12.9062,-0.0177 z"
           id="path14055-1" /><path
           style="color:#000000;fill:#000000;stroke:none;stroke-width:14.1;stroke-linecap:round;stroke-linejoin:round;stroke-miterlimit:0;stroke-dasharray:none;stroke-opacity:1;paint-order:fill markers stroke"
           d="m -1400.6152,792.08984 c -6.5564,-0.004 -11.7625,0.10498 -15.0059,0.46289 l -7.2559,0.80079 c -2.1687,0.24033 -3.8118,2.06996 -3.8183,4.25195 l -0.3125,103.98828 -0.3164,103.98825 c -0.01,2.3744 1.9146,4.3036 4.289,4.3047 l 16.2149,0.01 c 18.4293,0.01 33.5045,1.3158 53.5196,4.6445 18.7091,3.1117 31.6487,6.5108 58.9785,15.5117 20.5816,6.7784 33.5863,10.1358 46.0254,11.8086 1.9036,0.2558 4.5921,0.2702 8.5996,0.2891 4.0075,0.019 8.9518,-0.029 13.9043,-0.1484 20.5327,-0.4952 30.0796,-2.4904 59.8066,-12.5372 39.1168,-13.2202 66.6563,-18.396 101.4668,-19.1132 6.3631,-0.1311 12.2127,-0.3069 16.541,-0.4883 2.1642,-0.091 3.9427,-0.1827 5.2539,-0.2735 0.6556,-0.045 1.1858,-0.089 1.6524,-0.1425 0.2333,-0.027 0.4412,-0.053 0.7265,-0.1075 0.1427,-0.027 0.2993,-0.056 0.5684,-0.1386 0.2691,-0.083 0.5852,0.02 1.6426,-0.9141 0,0 0.8566,-1.0158 1,-1.3027 0.1434,-0.287 0.2054,-0.4685 0.2519,-0.6133 0.093,-0.2895 0.1164,-0.4324 0.1387,-0.5508 0.045,-0.2368 0.054,-0.3492 0.066,-0.4629 0.024,-0.2273 0.034,-0.4098 0.047,-0.6308 0.025,-0.4422 0.046,-1.0042 0.068,-1.7286 0.044,-1.4487 0.09,-3.52116 0.1347,-6.17573 0.09,-5.30915 0.1797,-12.93112 0.2676,-22.3125 0.1757,-18.76278 0.3376,-44.56086 0.4434,-72.875 0.1432,-38.39303 0.1413,-64.18668 -0.039,-80.50782 -0.09,-8.16057 -0.2223,-13.94421 -0.4102,-17.8164 -0.094,-1.9361 -0.1984,-3.37786 -0.3398,-4.51563 -0.071,-0.56888 -0.1402,-1.04726 -0.2891,-1.61914 -0.074,-0.28594 -0.1556,-0.59381 -0.375,-1.05469 -0.2193,-0.46087 -0.4699,-1.24067 -1.8769,-2.03125 0,-0.001 -0.01,-0.003 -0.01,-0.004 -1.2751,-0.71298 -1.6876,-0.63673 -2.3477,-0.75196 -0.6601,-0.11522 -1.3749,-0.20201 -2.207,-0.2832 -1.6643,-0.16237 -3.7732,-0.29205 -6.2598,-0.40234 -4.9731,-0.2206 -11.428,-0.3529 -18.2773,-0.39453 -13.6986,-0.0833 -28.8139,0.17851 -36.8555,0.91796 -43.3607,3.98668 -77.5674,16.17859 -112.0859,39.98243 -2.955,2.03773 -5.908,4.15518 -8.3184,5.95117 -2.2251,1.65795 -3.6878,2.78867 -4.873,3.90234 -0.6596,-0.3963 -2.5386,-1.59227 -6.7344,-4.72265 -30.4226,-22.69725 -66.3716,-37.89032 -102.6778,-43.35352 -10.9311,-1.64481 -41.2514,-2.82049 -60.9238,-2.83984 v -0.002 z m 321.3066,21.37891 c 6.4081,0.023 12.3989,0.1616 16.7891,0.4043 1.7393,0.0961 2.9676,0.21975 4.0918,0.33984 0.051,1.15276 0.1028,2.3675 0.1484,4.1875 0.1172,4.6773 0.2129,11.40683 0.2813,19.67773 0.1366,16.54182 0.1653,39.26899 0.055,64.3379 l -0.3808,86.03125 h -2.6563 c -4.3734,0 -14.1066,0.76392 -22.5625,1.69531 -31.2749,3.44529 -61.0954,10.23482 -92.8183,21.11912 -10.1139,3.4701 -21.9594,7.212 -25.5059,8.1113 -4.302,1.091 -9.5374,1.98 -13.7109,2.4278 -1.6158,0.1733 -2.8389,0.2197 -3.9864,0.2558 -0.038,-0.931 -0.077,-1.7007 -0.1132,-3.0175 -0.1175,-4.2276 -0.2228,-10.3294 -0.3125,-17.8262 -0.1796,-14.9937 -0.293,-35.57616 -0.293,-58.10353 v -79.99414 l 4.7832,-4.08789 v -0.002 c 27.1491,-23.21778 65.5456,-39.96359 101.668,-44.3125 7.0176,-0.84498 21.7074,-1.29016 34.5234,-1.24414 z m -293.498,0.24219 c 28.5538,0.40142 48.5698,3.91386 69.1895,11.78125 17.5923,6.71228 43.0884,21.62701 58.123,34.02539 v 0.002 l 4.7227,3.89258 v 80.60351 78.21883 l -0.5606,-0.014 c -9.252,-0.2387 -22.5379,-3.3834 -42.6758,-10.4492 -37.938,-13.31147 -75.6002,-21.13356 -110.5664,-22.91218 l -10.6777,-0.54296 0.5156,-87.19922 0.5156,-87.10157 18.6329,-0.2871 c 4.4485,-0.0683 8.7008,-0.0756 12.7793,-0.0176 z"
           id="path14057-5"
           sodipodi:nodetypes="csccccccsssssssccssccsscscscssssccsccsssscsscssccccscssccscsssccsscccsccssccccccssccccss" /></g></g><path
       style="font-variation-settings:'wght' 500;fill:none;fill-opacity:1;stroke:#000000;stroke-width:20;stroke-linecap:round;stroke-linejoin:round;stroke-miterlimit:0;stroke-dasharray:none;stroke-opacity:1;paint-order:fill markers stroke"
       d="m -325.61439,894.36278 c -49.8594,0 -74.7582,15.5929 -103.7872,29.5939"
       id="path15765-9"
       sodipodi:nodetypes="cc" /><path
       style="font-variation-settings:'wght' 500;fill:none;fill-opacity:1;stroke:#000000;stroke-width:20;stroke-linecap:round;stroke-linejoin:round;stroke-miterlimit:0;stroke-dasharray:none;stroke-opacity:1;paint-order:fill markers stroke"
       d="m -620.78559,993.26258 c 49.8594,0 74.7582,15.59302 103.7872,29.59402"
       id="path15765-9-1"
       sodipodi:nodetypes="cc" /><path
       style="font-variation-settings:'wght' 500;fill:none;fill-opacity:1;stroke:#000000;stroke-width:20;stroke-linecap:round;stroke-linejoin:round;stroke-miterlimit:0;stroke-dasharray:none;stroke-opacity:1;paint-order:fill markers stroke"
       d="m -325.61439,944.17818 c -49.8594,0 -74.7582,15.5929 -103.7872,29.594"
       id="path15765-9-0"
       sodipodi:nodetypes="cc" /><path
       style="font-variation-settings:'wght' 500;fill:none;fill-opacity:1;stroke:#000000;stroke-width:20;stroke-linecap:round;stroke-linejoin:round;stroke-miterlimit:0;stroke-dasharray:none;stroke-opacity:1;paint-order:fill markers stroke"
       d="m -325.61439,993.26268 c -49.8594,0 -74.7582,15.59292 -103.7872,29.59382"
       id="path15765-9-9"
       sodipodi:nodetypes="cc" /></g></svg>
